<?xml version="1.0" encoding="UTF-8" standalone="no"?>
<svg
   xmlns:dc="http://purl.org/dc/elements/1.1/"
   xmlns:cc="http://creativecommons.org/ns#"
   xmlns:rdf="http://www.w3.org/1999/02/22-rdf-syntax-ns#"
   xmlns:svg="http://www.w3.org/2000/svg"
   xmlns="http://www.w3.org/2000/svg"
   viewBox="0 0 666.66669 400"
   height="400"
   width="666.66669"
   xml:space="preserve"
   id="svg2"
   version="1.1"><metadata
     id="metadata8"><rdf:RDF><cc:Work
         rdf:about=""><dc:format>image/svg+xml</dc:format><dc:type
           rdf:resource="http://purl.org/dc/dcmitype/StillImage" /></cc:Work></rdf:RDF></metadata><defs
     id="defs6"><clipPath
       id="clipPath18"
       clipPathUnits="userSpaceOnUse"><path
         id="path16"
         d="M 0,300 H 500 V 0 H 0 Z" /></clipPath></defs><g
     transform="matrix(1.3333333,0,0,-1.3333333,0,400)"
     id="g10"><g
       id="g12"><g
         clip-path="url(#clipPath18)"
         id="g14"><g
           transform="translate(227.4502,90.9502)"
           id="g20"><path
             id="path22"
             style="fill:none;stroke:#333333;stroke-width:12;stroke-linecap:round;stroke-linejoin:miter;stroke-miterlimit:3;stroke-dasharray:none;stroke-opacity:1"
             d="M 0,0 C -0.267,0.066 -0.517,0.149 -0.75,0.25 -2.45,0.25 -4.167,0.166 -5.9,0 m -1.3,0 c -13.633,0.3 -25.2,4.316 -34.7,12.05 -10,8.066 -15,17.783 -15,29.15 V 157.95 C -41.3,158.017 -27.867,151 -16.6,136.9 -6.3,123.733 -0.817,108.05 -0.15,89.85 -0.184,88.716 -0.133,58.767 0,0 0.9,-16.9 9.05,-29.316 24.45,-37.25 33.35,-41.816 42.8,-44 52.8,-43.8 c 15.2,0.533 30.55,0.883 46.05,1.05 h 9.6 c -0.967,16.833 -7.334,28.7 -19.1,35.6 -9,5.367 -21.25,7.783 -36.75,7.25 L 1.1,0" /></g></g></g></g></svg>